<svg xmlns="http://www.w3.org/2000/svg" width="760" height="248" viewBox="0 0 760 248" role="img" aria-label="Qwen3.6-35B-A3B UD-Q4_K_M (22.1 GB MoE) with a 5500 MiB memory budget: decode speed"><title>Qwen3.6-35B-A3B UD-Q4_K_M (22.1 GB MoE) with a 5500 MiB memory budget: decode speed</title><style>text{font-family:system-ui, -apple-system, "Segoe UI", sans-serif;} .num{font-variant-numeric:tabular-nums} .bg{fill:#fcfcfb}.t1{fill:#0b0b0b}.t2{fill:#52514e}.tm{fill:#898781}.grid{stroke:#e1e0d9}.axis{stroke:#c3c2b7}.f0{fill:#2a78d6} .k0{stroke:#2a78d6} .gap{stroke:#fcfcfb}.f1{fill:#eb6834} .k1{stroke:#eb6834} .gap{stroke:#fcfcfb}.f2{fill:#1baf7a} .k2{stroke:#1baf7a} .gap{stroke:#fcfcfb}.f3{fill:#eda100} .k3{stroke:#eda100} .gap{stroke:#fcfcfb} @media (prefers-color-scheme: dark){ .bg{fill:#1a1a19}.t1{fill:#ffffff}.t2{fill:#c3c2b7}.tm{fill:#898781}.grid{stroke:#2c2c2a}.axis{stroke:#383835}.f0{fill:#3987e5} .k0{stroke:#3987e5} .gap{stroke:#1a1a19}.f1{fill:#d95926} .k1{stroke:#d95926} .gap{stroke:#1a1a19}.f2{fill:#199e70} .k2{stroke:#199e70} .gap{stroke:#1a1a19}.f3{fill:#c98500} .k3{stroke:#c98500} .gap{stroke:#1a1a19} }</style><rect class="bg" width="760" height="248" rx="8"/><text x="16.0" y="26.0" class="t1" font-size="15" text-anchor="start" font-weight="600">Qwen3.6-35B-A3B UD-Q4_K_M (22.1 GB MoE) with a 5500 MiB memory budget: decode speed</text><text x="16.0" y="46.0" class="t2" font-size="12" text-anchor="start" font-weight="400">Higher is better. Each step adds to the previous one.</text><line class="grid" x1="295.0" y1="64" x2="295.0" y2="196" stroke-width="1"/><text x="295.0" y="212.0" class="tm num" font-size="11" text-anchor="middle" font-weight="400">0</text><line class="grid" x1="374.0" y1="64" x2="374.0" y2="196" stroke-width="1"/><text x="374.0" y="212.0" class="tm num" font-size="11" text-anchor="middle" font-weight="400">1</text><line class="grid" x1="453.0" y1="64" x2="453.0" y2="196" stroke-width="1"/><text x="453.0" y="212.0" class="tm num" font-size="11" text-anchor="middle" font-weight="400">2</text><line class="grid" x1="532.0" y1="64" x2="532.0" y2="196" stroke-width="1"/><text x="532.0" y="212.0" class="tm num" font-size="11" text-anchor="middle" font-weight="400">4</text><line class="grid" x1="611.0" y1="64" x2="611.0" y2="196" stroke-width="1"/><text x="611.0" y="212.0" class="tm num" font-size="11" text-anchor="middle" font-weight="400">5</text><line class="grid" x1="690.0" y1="64" x2="690.0" y2="196" stroke-width="1"/><text x="690.0" y="212.0" class="tm num" font-size="11" text-anchor="middle" font-weight="400">6</text><text x="690.0" y="226.0" class="tm" font-size="11" text-anchor="end" font-weight="400">tokens / s</text><text x="16.0" y="240.0" class="tm" font-size="10" text-anchor="start" font-weight="400">Measured on Xiaomi 25010PN30G: Snapdragon 8 Elite (SM8750), 15 GB RAM, UFS 4, Adreno 830.</text><text x="285.0" y="81.0" class="t1" font-size="12" text-anchor="end" font-weight="400">Before (condition-variable thread pool)</text><path class="f0" d="M295.0,70.0 H492.5 Q496.5,70.0 496.5,74.0 V80.0 Q496.5,84.0 492.5,84.0 H295.0 Z"/><text x="502.5" y="81.0" class="t1 num" font-size="11" text-anchor="start" font-weight="400">3.1</text><text x="285.0" y="111.0" class="t1" font-size="12" text-anchor="end" font-weight="400">+ spinning thread pool</text><path class="f0" d="M295.0,100.0 H504.3 Q508.3,100.0 508.3,104.0 V110.0 Q508.3,114.0 504.3,114.0 H295.0 Z"/><text x="514.3" y="111.0" class="t1 num" font-size="11" text-anchor="start" font-weight="400">3.2</text><text x="285.0" y="141.0" class="t1" font-size="12" text-anchor="end" font-weight="400">+ fresh expert loads kept in the cache</text><path class="f0" d="M295.0,130.0 H655.7 Q659.7,130.0 659.7,134.0 V140.0 Q659.7,144.0 655.7,144.0 H295.0 Z"/><text x="665.7" y="141.0" class="t1 num" font-size="11" text-anchor="start" font-weight="400">5.5</text><text x="285.0" y="171.0" class="t1" font-size="12" text-anchor="end" font-weight="400">+ a block&#x27;s experts in one batched pass</text><path class="f0" d="M295.0,160.0 H681.4 Q685.4,160.0 685.4,164.0 V170.0 Q685.4,174.0 681.4,174.0 H295.0 Z"/><text x="691.4" y="171.0" class="t1 num" font-size="11" text-anchor="start" font-weight="400">5.9</text><line class="axis" x1="295" y1="64" x2="295" y2="196" stroke-width="1"/></svg>
